<svg width="24" height="24" viewBox="0 0 24 24" fill="none" xmlns="http://www.w3.org/2000/svg">
<path d="M12 1.64404C11.6039 1.64404 11.2241 1.83558 10.944 2.17651C10.664 2.51745 10.5066 2.97986 10.5066 3.46201C10.5068 3.79133 10.5804 4.11442 10.7196 4.39678C10.8588 4.67914 11.0584 4.91016 11.297 5.06517L8.34392 11.8062L4.32621 8.92835C4.46148 8.64918 4.53297 8.33106 4.5333 8.00694C4.5333 7.52479 4.37596 7.06238 4.09591 6.72144C3.81586 6.38051 3.43602 6.18897 3.03996 6.18897C2.64391 6.18897 2.26407 6.38051 1.98402 6.72144C1.70396 7.06238 1.54663 7.52479 1.54663 8.00694C1.54663 8.4891 1.70396 8.95151 1.98402 9.29244C2.26407 9.63338 2.64391 9.82491 3.03996 9.82491C3.08966 9.82438 3.13931 9.82082 3.18871 9.81426L3.78663 17.0968H6.02663H15.7333H17.9733H20.2133L20.8112 9.81604C20.8606 9.822 20.9103 9.82497 20.96 9.82491C21.356 9.82491 21.7359 9.63338 22.0159 9.29244C22.296 8.95151 22.4533 8.4891 22.4533 8.00694C22.4533 7.52479 22.296 7.06238 22.0159 6.72144C21.7359 6.38051 21.356 6.18897 20.96 6.18897C20.5639 6.18897 20.1841 6.38051 19.904 6.72144C19.624 7.06238 19.4666 7.52479 19.4666 8.00694C19.467 8.33106 19.5385 8.64918 19.6737 8.92835L15.656 11.8062L12.7029 5.06517C12.9416 4.91016 13.1411 4.67914 13.2804 4.39678C13.4196 4.11442 13.4932 3.79133 13.4933 3.46201C13.4933 2.97986 13.336 2.51745 13.0559 2.17651C12.7759 1.83558 12.396 1.64404 12 1.64404ZM3.78663 18.9148V20.7327C3.78663 21.7372 4.4549 22.5507 5.27996 22.5507H18.72C19.545 22.5507 20.2133 21.7372 20.2133 20.7327V18.9148H3.78663Z" fill="white"/>
</svg>
