<svg width="24" height="24" viewBox="0 0 24 24" fill="none" xmlns="http://www.w3.org/2000/svg">
<path d="M19.7656 7.22538L14.5656 2.22538C14.4152 2.08077 14.212 2 14 2H5.6C4.716 2 4 2.68846 4 3.53846V20.4615C4 21.3115 4.716 22 5.6 22H18.4C19.284 22 20 21.3115 20 20.4615V7.76923C20 7.56538 19.916 7.37 19.7656 7.22538ZM14.4 16.6154H8C7.5584 16.6154 7.2 16.2715 7.2 15.8462C7.2 15.4208 7.5584 15.0769 8 15.0769H14.4C14.8424 15.0769 15.2 15.4208 15.2 15.8462C15.2 16.2715 14.8424 16.6154 14.4 16.6154ZM16 13.5385H8C7.5584 13.5385 7.2 13.1946 7.2 12.7692C7.2 12.3446 7.5584 12 8 12H16C16.4424 12 16.8 12.3446 16.8 12.7692C16.8 13.1946 16.4424 13.5385 16 13.5385ZM14.4 8.15385C13.9584 8.15385 13.6 7.80923 13.6 7.38462V3.46462L18.4768 8.15385H14.4Z" fill="white"/>
</svg>
