<svg width="28" height="28" viewBox="0 0 28 28" fill="none" xmlns="http://www.w3.org/2000/svg">
<path d="M2.8 0C2.05739 0 1.3452 0.294999 0.820101 0.820101C0.294999 1.3452 0 2.05739 0 2.8L0 28L5.6 22.4H25.2C25.9426 22.4 26.6548 22.105 27.1799 21.5799C27.705 21.0548 28 20.3426 28 19.6V2.8C28 2.05739 27.705 1.3452 27.1799 0.820101C26.6548 0.294999 25.9426 0 25.2 0L2.8 0ZM7 12.684C6.61397 12.6896 6.23502 12.5802 5.91134 12.3697C5.58766 12.1593 5.33388 11.8574 5.18229 11.5023C5.0307 11.1472 4.98815 10.7551 5.06004 10.3758C5.13194 9.9965 5.31503 9.64714 5.58604 9.37218C5.85704 9.09722 6.20371 8.90908 6.58194 8.83169C6.96017 8.75431 7.35287 8.79118 7.71009 8.93761C8.06731 9.08404 8.3729 9.33341 8.58799 9.65401C8.80309 9.9746 8.91796 10.3519 8.918 10.738C8.91805 11.2493 8.71688 11.7401 8.35796 12.1042C7.99905 12.4684 7.51124 12.6766 7 12.684ZM14.224 12.684C13.8391 12.684 13.4629 12.5699 13.1429 12.356C12.8228 12.1422 12.5734 11.8383 12.4261 11.4827C12.2788 11.1271 12.2403 10.7358 12.3154 10.3584C12.3905 9.98087 12.5758 9.63412 12.848 9.36197C13.1201 9.08982 13.4669 8.90448 13.8444 8.82939C14.2218 8.7543 14.6131 8.79284 14.9687 8.94013C15.3243 9.08742 15.6282 9.33684 15.842 9.65686C16.0559 9.97688 16.17 10.3531 16.17 10.738C16.1701 10.9971 16.1184 11.2537 16.018 11.4925C15.9175 11.7314 15.7704 11.9478 15.5853 12.1291C15.4001 12.3104 15.1806 12.4528 14.9396 12.5481C14.6986 12.6434 14.4411 12.6896 14.182 12.684H14.224ZM21.448 12.684C21.0631 12.684 20.6869 12.5699 20.3669 12.356C20.0468 12.1422 19.7974 11.8383 19.6501 11.4827C19.5028 11.1271 19.4643 10.7358 19.5394 10.3584C19.6145 9.98087 19.7998 9.63412 20.072 9.36197C20.3441 9.08982 20.6909 8.90448 21.0684 8.82939C21.4458 8.7543 21.8371 8.79284 22.1927 8.94013C22.5483 9.08742 22.8522 9.33684 23.066 9.65686C23.2799 9.97688 23.394 10.3531 23.394 10.738C23.3941 10.9971 23.3424 11.2537 23.242 11.4925C23.1415 11.7314 22.9944 11.9478 22.8093 12.1291C22.6241 12.3104 22.4046 12.4528 22.1636 12.5481C21.9226 12.6434 21.6651 12.6896 21.406 12.684H21.448Z" fill="#80B3FF"/>
</svg>
