<svg width="20" height="20" viewBox="0 0 20 20" fill="none" xmlns="http://www.w3.org/2000/svg">
<path d="M12.4 13.2V11.6C12.76 11.4216 13.7896 10.196 13.8976 9.23842C14.1808 9.21682 14.6256 8.95682 14.7568 7.93042C14.8272 7.37922 14.5472 7.06962 14.3776 6.97202C14.3776 6.97202 14.8 6.16962 14.8 5.20082C14.8 3.25842 14.0376 1.60082 12.4 1.60082C12.4 1.60082 11.8312 0.400818 10 0.400818C6.60642 0.400818 5.20002 2.57762 5.20002 5.20082C5.20002 6.08402 5.62242 6.97202 5.62242 6.97202C5.45282 7.06962 5.17282 7.38002 5.24322 7.93042C5.37442 8.95682 5.81922 9.21682 6.10242 9.23842C6.21042 10.196 7.24002 11.4216 7.60002 11.6V13.2C6.80002 15.6 0.400024 14 0.400024 19.6H19.6C19.6 14 13.2 15.6 12.4 13.2Z" fill="#EBEBF5" fill-opacity="0.6"/>
</svg>
