<svg width="18" height="14" viewBox="0 0 18 14" fill="none" xmlns="http://www.w3.org/2000/svg">
<path d="M10.75 14C10.4667 14 10.229 13.904 10.037 13.712C9.845 13.52 9.74934 13.2827 9.75 13V1C9.75 0.71667 9.846 0.479004 10.038 0.287004C10.23 0.0950036 10.4673 -0.000663206 10.75 3.4602e-06H12.125C12.4083 3.4602e-06 12.646 0.0960036 12.838 0.288004C13.03 0.480004 13.1257 0.717337 13.125 1V13C13.125 13.2833 13.029 13.521 12.837 13.713C12.645 13.905 12.4077 14.0007 12.125 14H10.75ZM5.875 14C5.59167 14 5.354 13.904 5.162 13.712C4.97 13.52 4.87434 13.2827 4.875 13V1C4.875 0.71667 4.971 0.479004 5.163 0.287004C5.355 0.0950036 5.592 -0.000663206 5.874 3.4602e-06H7.249C7.53234 3.4602e-06 7.77 0.0960036 7.962 0.288004C8.154 0.480004 8.25 0.717337 8.25 1V13C8.25 13.2833 8.154 13.521 7.962 13.713C7.77 13.905 7.53267 14.0007 7.25 14H5.875ZM1 14C0.71667 14 0.479003 13.904 0.287003 13.712C0.0950034 13.52 -0.000663206 13.2827 3.46021e-06 13V1C3.46021e-06 0.71667 0.0960036 0.479004 0.288004 0.287004C0.480004 0.0950036 0.717337 -0.000663206 1 3.4602e-06H2.375C2.65834 3.4602e-06 2.896 0.0960036 3.088 0.288004C3.28 0.480004 3.37567 0.717337 3.375 1V13C3.375 13.2833 3.279 13.521 3.087 13.713C2.895 13.905 2.658 14.0007 2.376 14H1ZM15.625 14C15.3417 14 15.104 13.904 14.912 13.712C14.72 13.52 14.6247 13.2827 14.626 13V1C14.626 0.71667 14.722 0.479004 14.914 0.287004C15.106 0.0950036 15.343 -0.000663206 15.625 3.4602e-06H17C17.2833 3.4602e-06 17.521 0.0960036 17.713 0.288004C17.905 0.480004 18.0007 0.717337 18 1V13C18 13.2833 17.904 13.521 17.712 13.713C17.52 13.905 17.2827 14.0007 17 14H15.625Z" fill="white"/>
</svg>
